<svg width="282" height="102" viewBox="0 0 282 102" fill="none" xmlns="http://www.w3.org/2000/svg">
<path fill-rule="evenodd" clip-rule="evenodd" d="M76.0541 88.3305H96.1956V79.6279H76.0541V88.3305Z" fill="#323025"/>
<path fill-rule="evenodd" clip-rule="evenodd" d="M122.739 74.9031H115.404V65.3924H122.739C125.267 65.3924 127.08 65.7646 128.179 66.5111C129.276 67.2569 129.826 68.4801 129.826 70.1785C129.826 71.7954 129.276 72.9864 128.179 73.7529C127.08 74.5202 125.267 74.9031 122.739 74.9031ZM134.333 83.5134C133.478 82.8828 132.57 82.4706 131.612 82.2666C133.504 81.6503 135.139 80.7428 136.509 79.5346C139.306 77.0689 140.705 73.8467 140.705 69.8679C140.705 65.6408 139.369 62.367 136.695 60.0459C134.023 57.7254 129.991 56.5645 124.604 56.5645H104.028V100.826H115.529V83.6065H119.756C120.75 83.6065 121.683 83.7925 122.553 84.1662C123.424 84.5383 124.045 85.1818 124.418 86.0922L130.137 100.826H142.508L137.286 87.6468C136.581 85.8238 135.597 84.4453 134.333 83.5134Z" fill="#323025"/>
<path fill-rule="evenodd" clip-rule="evenodd" d="M160.871 76.0844C162.487 76.0844 163.72 76.634 164.57 77.732C165.172 78.5107 165.556 79.5822 165.732 80.9335H155.666C155.895 79.7539 156.269 78.7848 156.8 78.0419C157.732 76.7371 159.089 76.0844 160.871 76.0844ZM168.424 70.3649C166.207 69.0394 163.585 68.3759 160.56 68.3759C157.452 68.3759 154.717 69.0809 152.355 70.4895C149.992 71.8987 148.137 73.847 146.791 76.3334C145.444 78.8192 144.771 81.6793 144.771 84.9115C144.771 88.2691 145.475 91.18 146.884 93.6457C148.293 96.1121 150.313 98.0081 152.946 99.3336C155.577 100.661 158.716 101.323 162.363 101.323C164.601 101.323 166.839 101.001 169.077 100.36C171.315 99.7173 173.22 98.7954 174.796 97.5929L171.936 90.1335C170.693 91.0454 169.273 91.7604 167.678 92.2779C166.082 92.7968 164.497 93.0552 162.922 93.0552C160.311 93.0552 158.405 92.3616 157.203 90.9731C156.288 89.916 155.724 88.307 155.505 86.1548H175.355V84.6625C175.355 81.3479 174.754 78.4678 173.553 76.0221C172.351 73.5779 170.641 71.6926 168.424 70.3649Z" fill="#323025"/>
<path fill-rule="evenodd" clip-rule="evenodd" d="M197.858 76.9546C199.226 76.9546 200.656 77.2244 202.148 77.7626C203.64 78.3016 204.945 79.0273 206.064 79.9385L208.924 72.1677C207.597 71.0082 205.816 70.0849 203.578 69.4014C201.34 68.7179 199.06 68.3765 196.74 68.3765C193.217 68.3765 190.14 69.07 187.508 70.4585C184.876 71.8471 182.824 73.7953 181.354 76.3018C179.882 78.8105 179.147 81.7407 179.147 85.0982C179.147 88.4135 179.82 91.2943 181.167 93.7393C182.514 96.1842 184.472 98.0595 187.042 99.365C189.611 100.67 192.678 101.323 196.242 101.323C198.769 101.323 201.163 100.991 203.422 100.328C205.681 99.6656 207.514 98.733 208.924 97.5313L206.064 89.885C204.945 90.8384 203.64 91.5742 202.148 92.0917C200.656 92.6106 199.246 92.869 197.921 92.869C195.599 92.869 193.807 92.2155 192.543 90.9107C191.279 89.6052 190.647 87.5854 190.647 84.8498C190.647 82.1558 191.289 80.1668 192.575 78.882C193.859 77.598 195.621 76.9546 197.858 76.9546Z" fill="#323025"/>
<path fill-rule="evenodd" clip-rule="evenodd" d="M233.137 90.8793C232.038 92.247 230.515 92.9306 228.568 92.9306C226.537 92.9306 224.983 92.2578 223.906 90.91C222.828 89.5637 222.289 87.6262 222.289 85.0983C222.289 82.4873 222.848 80.4675 223.968 79.0374C225.086 77.6074 226.62 76.8924 228.568 76.8924C230.558 76.8924 232.09 77.5759 233.168 78.9437C234.245 80.3121 234.784 82.3219 234.784 84.9737C234.784 87.5439 234.234 89.5115 233.137 90.8793ZM234.784 73.2578C234.031 72.0354 232.967 70.9961 231.582 70.148C229.656 68.9663 227.489 68.3765 225.086 68.3765C222.392 68.3765 219.999 69.0808 217.907 70.4894C215.813 71.8987 214.166 73.8569 212.964 76.3641C211.762 78.8721 211.162 81.7837 211.162 85.0983C211.162 88.3728 211.752 91.2314 212.933 93.6771C214.114 96.1227 215.763 98.008 217.875 99.3335C219.989 100.661 222.392 101.323 225.086 101.323C227.489 101.323 229.656 100.764 231.582 99.6449C232.967 98.8411 234.031 97.8198 234.784 96.588V100.826H245.85V69.2461H234.784V73.2578Z" fill="#323025"/>
<path fill-rule="evenodd" clip-rule="evenodd" d="M252.563 100.826H263.815V55.0732H252.563V100.826Z" fill="#323025"/>
<path fill-rule="evenodd" clip-rule="evenodd" d="M270.528 100.826H281.78V55.0732H270.528V100.826Z" fill="#323025"/>
<path fill-rule="evenodd" clip-rule="evenodd" d="M40.7173 67.96C38.3131 67.96 36.1266 68.5812 34.1583 69.8245C32.5436 70.8444 31.2481 72.1341 30.2611 73.6837C29.6599 72.2429 28.8475 71.0684 27.8183 70.1666C26.1392 68.6957 23.8903 67.96 21.0732 67.96C18.5867 67.96 16.4417 68.519 14.6387 69.6376C13.1679 70.5509 11.9984 71.7598 11.1202 73.2528L10.5669 68.8296H-0.000930786C0.205917 70.3212 0.341191 71.835 0.40346 73.3681C0.465729 74.9019 0.496506 76.4142 0.496506 77.9058V100.409H11.7479V83.2524C11.7479 81.1388 12.173 79.5019 13.0226 78.341C13.8722 77.1815 15.0839 76.6003 16.6593 76.6003C17.9848 76.6003 18.9281 77.0262 19.4878 77.8743C20.0476 78.7246 20.3267 80.0616 20.3267 81.8846V100.409H31.5788V83.2524C31.5788 81.1388 32.0139 79.5019 32.8843 78.341C33.7546 77.1815 34.9764 76.6003 36.5517 76.6003C37.9195 76.6003 38.8721 77.0262 39.4118 77.8743C39.9493 78.7246 40.2199 80.0616 40.2199 81.8846V100.409L51.4712 100.41V81.574C51.4712 77.0155 50.6009 73.6064 48.8602 71.3475C47.1203 69.0894 44.4048 67.96 40.7173 67.96Z" fill="#323025"/>
<path fill-rule="evenodd" clip-rule="evenodd" d="M57.4612 100.41H68.7133L68.7126 73.4385C68.7126 70.4503 66.2898 68.0268 63.3009 68.0268C60.0758 68.0268 57.4612 70.6421 57.4612 73.8672V100.41Z" fill="#323025"/>
<path fill-rule="evenodd" clip-rule="evenodd" d="M67.9701 61.8996C67.9701 64.5965 65.7835 66.7824 63.0866 66.7824C60.3897 66.7824 58.2039 64.5965 58.2039 61.8996C58.2039 59.2027 60.3897 57.0161 63.0866 57.0161C65.7835 57.0161 67.9701 59.2027 67.9701 61.8996Z" fill="#323025"/>
<path fill-rule="evenodd" clip-rule="evenodd" d="M80.6311 41.7129C80.4944 42.8288 80.8838 43.775 81.6532 44.5658C83.2858 46.2442 86.1544 46.2471 87.8006 44.5837C89.6479 42.7164 88.9959 39.6788 86.5051 38.6689C85.9483 38.4434 85.3313 38.3647 84.7423 38.218C82.5521 38.3168 80.8773 39.7039 80.6311 41.7129ZM86.1115 37.3727C89.5005 38.2237 91.2376 42.0257 88.91 45.011C87.2817 47.1003 83.9714 47.5727 81.6575 46.0116C79.438 44.515 78.8203 41.8625 80.231 39.5965C81.2624 37.9396 82.8613 37.2525 84.9305 37.1995C85.2211 37.2403 85.677 37.2632 86.1115 37.3727Z" fill="#323025"/>
<path fill-rule="evenodd" clip-rule="evenodd" d="M72.534 51.1922C72.549 52.6373 73.8295 53.7961 75.3876 53.7739C76.9529 53.7524 78.1854 52.5872 78.184 51.1292C78.1833 49.6498 76.9222 48.4896 75.3239 48.4975C73.7314 48.5061 72.5182 49.677 72.534 51.1922ZM75.4613 54.9047C73.2869 54.9513 71.4725 53.3144 71.4003 51.2395C71.3273 49.1695 73.1059 47.4224 75.3232 47.3845C77.4525 47.348 79.2476 49.0135 79.2963 51.0713C79.3449 53.1032 77.5892 54.8582 75.4613 54.9047Z" fill="#323025"/>
<path fill-rule="evenodd" clip-rule="evenodd" d="M84.7424 38.2181C82.5522 38.3169 80.8774 39.704 80.6312 41.7131C80.4945 42.8282 80.8831 43.7751 81.6532 44.566C83.2858 46.2437 86.1545 46.2473 87.8 44.5839C89.648 42.7165 88.996 39.679 86.5045 38.6691C85.9484 38.4429 85.3314 38.3649 84.7424 38.2181Z" fill="#FFFFFE"/>
<path fill-rule="evenodd" clip-rule="evenodd" d="M75.3242 48.4978C73.7317 48.5056 72.5185 49.6773 72.5343 51.1925C72.5486 52.6376 73.829 53.7956 75.3872 53.7742C76.9532 53.752 78.185 52.5868 78.1843 51.1288C78.1836 49.6494 76.9224 48.4899 75.3242 48.4978Z" fill="#FFFFFE"/>
<path fill-rule="evenodd" clip-rule="evenodd" d="M167.354 27.5905C166.664 19.3101 161.394 12.9358 153.832 12.011C153.809 12.0082 153.785 11.9974 153.764 11.9967C151.697 11.9244 152.324 11.9638 150.846 9.8266C147.616 5.15499 143.728 2.30278 137.983 1.66435C130.788 0.86487 124.627 3.13447 120.82 9.00494C120.324 9.77006 120.097 9.86096 119.4 9.36209C113.159 4.89232 104.658 8.17969 102.523 16.5237C102.364 17.1464 101.997 17.3597 101.492 17.4886C98.5553 18.2408 96.0889 19.8512 94.1578 22.3591C91.9211 25.265 90.9728 28.6004 91.4988 32.8454C92.1287 35.9481 93.296 37.7124 94.2222 38.7008C98.911 43.7088 109.259 49.3381 129.386 49.4226C149.249 49.5063 158.058 44.3201 162.2 40.2146C165.243 37.1992 167.868 33.7551 167.354 27.5905Z" fill="#FFFFFE"/>
<path fill-rule="evenodd" clip-rule="evenodd" d="M167.354 27.5905C166.664 19.3101 161.394 12.9358 153.832 12.011C153.809 12.0082 153.785 11.9974 153.764 11.9967C151.697 11.9244 152.324 11.9638 150.846 9.8266C147.616 5.15499 143.728 2.30278 137.983 1.66435C130.788 0.86487 124.627 3.13447 120.82 9.00494C120.324 9.77006 120.097 9.86096 119.4 9.36209C113.159 4.89232 104.658 8.17969 102.523 16.5237C102.364 17.1464 101.997 17.3597 101.492 17.4886C98.5553 18.2408 96.0889 19.8512 94.1578 22.3591C91.9211 25.265 90.9728 28.6004 91.4988 32.8454C92.1287 35.9481 93.296 37.7124 94.2222 38.7008C98.911 43.7088 109.259 49.3381 129.386 49.4226C149.249 49.5063 158.058 44.3201 162.2 40.2146C165.243 37.1992 167.868 33.7551 167.354 27.5905Z" stroke="#323025" stroke-width="1.1781"/>
</svg>
